<svg width="16" height="16" viewBox="0 0 16 16" fill="none" xmlns="http://www.w3.org/2000/svg"><g clip-path="url(#clip0)"><path d="M13.66 2.34c-3.122-3.12-8.2-3.12-11.32 0-3.12 3.121-3.12 8.199 0 11.32 3.12 3.12 8.199 3.12 11.32 0 3.12-3.121 3.12-8.2 0-11.32zm-2.504 8.816c-.24.24-.63.24-.87 0L8 8.87l-2.394 2.395a.616.616 0 01-.871-.87L7.129 8 4.844 5.714a.616.616 0 11.87-.87L8 7.129l2.177-2.176a.616.616 0 11.87.87L8.87 8l2.286 2.286c.24.24.24.63 0 .87z" fill="#D10000"/></g><defs><clipPath id="clip0"><path fill="#fff" d="M0 0h16v16H0z"/></clipPath></defs></svg>