<svg width="40" height="40" viewBox="0 0 40 40" fill="none" xmlns="http://www.w3.org/2000/svg"><g clip-path="url(#clip0)"><path d="M22.35 10a.83.83 0 01-.827-.833V5.834c0-.46.37-.833.828-.833a.83.83 0 01.827.833v3.333a.83.83 0 01-.827.834z" fill="#FFA000"/><path d="M22.35 6.667a2.492 2.492 0 002.484-2.5c0-1.38-1.112-2.5-2.483-2.5a2.492 2.492 0 00-2.484 2.5c0 1.381 1.112 2.5 2.484 2.5z" fill="#FFC107"/><path d="M19.04 8.334h6.622a.83.83 0 01.827.833v11.666a.83.83 0 01-.827.834H19.04a.83.83 0 01-.828-.834V9.167c0-.46.37-.833.828-.833z" fill="#FFD54F"/><path d="M35.204 21.667H4.53a4.115 4.115 0 01-3.7-2.304l-.74-1.491a.836.836 0 01.37-1.119.826.826 0 011.111.374l.74 1.491A2.47 2.47 0 004.53 20h30.674a2.47 2.47 0 002.222-1.382l.74-1.491a.826.826 0 011.11-.373c.41.205.576.706.372 1.118l-.74 1.491a4.115 4.115 0 01-3.704 2.304z" fill="#CFD8DC"/><path d="M7.45 25a.83.83 0 01-.827-.834v-3.333c0-.46.37-.833.828-.833a.83.83 0 01.828.833v3.333A.83.83 0 017.45 25zm24.834 0a.83.83 0 01-.828-.834v-3.333c0-.46.37-.833.828-.833a.83.83 0 01.828.833v3.333a.83.83 0 01-.828.834z" fill="#CFD8DC"/><path d="M39.651 24.533l-3.129 6.3H3.212l-3.128-6.3a.855.855 0 01.033-.8.86.86 0 01.712-.4h38.077a.86.86 0 01.712.4.855.855 0 01.033.8z" fill="#607D8B"/><path d="M39.618 37.932a.86.86 0 01-.712.4H.829a.86.86 0 01-.712-.4.855.855 0 01-.033-.8l3.129-6.3h33.309l3.129 6.3a.855.855 0 01-.033.8z" fill="#455A64"/><path d="M17.384 35H5.795a.83.83 0 01-.828-.834.83.83 0 01.828-.833h11.589a.83.83 0 01.828.833.83.83 0 01-.828.833zm6.622 0h-1.655a.83.83 0 01-.828-.834c0-.46.37-.833.828-.833h1.655a.83.83 0 01.828.833.83.83 0 01-.828.833zm4.967 0h-1.656a.83.83 0 01-.828-.834.83.83 0 01.828-.833h1.656a.83.83 0 01.828.833.83.83 0 01-.828.833zm4.967 0h-1.656a.83.83 0 01-.828-.834c0-.46.37-.833.828-.833h1.655a.83.83 0 01.828.833.83.83 0 01-.828.833z" fill="#B0BEC5"/></g><defs><clipPath id="clip0"><path fill="#fff" d="M0 0h39.735v40H0z"/></clipPath></defs></svg>